PathFileType	4	(X/Y/Z)	/Users/itak/Documents/Research/Walk-IL/dataset/trc/00054_00006.trc
DataRate	CameraRate	NumFrames	NumMarkers	Units	OrigDataRate	OrigDataStartFrame	OrigNumFrames
100.000000	100.000000	4	53	mm	100.000000	0	472
Frame#	Time	RPSI			LPSI			L3			STRN			T10			C7			CLAV			RBAK			LBAK			LSHO			LUPA			LAEL			LAOL			LWTS			LWPS			LFRA			LHPS			LHTS			RSHO			RUPA			RAEL			RAOL			RWTS			RWPS			RFRA			RIFD			RHTS			RHPS			RBHD			LFHD			RFHD			LBHD			LHIP			RHIP			RASI			LASI			LKNE			LTHI			LANK			LTIP			LTOE			LMT1			LMT5			LHEE			RKNE			RTHI			RANK			RTIP			RTOE			RMT1			RMT5			RHEE			LIFD			
		X1	Y1	Z1	X2	Y2	Z2	X3	Y3	Z3	X4	Y4	Z4	X5	Y5	Z5	X6	Y6	Z6	X7	Y7	Z7	X8	Y8	Z8	X9	Y9	Z9	X10	Y10	Z10	X11	Y11	Z11	X12	Y12	Z12	X13	Y13	Z13	X14	Y14	Z14	X15	Y15	Z15	X16	Y16	Z16	X17	Y17	Z17	X18	Y18	Z18	X19	Y19	Z19	X20	Y20	Z20	X21	Y21	Z21	X22	Y22	Z22	X23	Y23	Z23	X24	Y24	Z24	X25	Y25	Z25	X26	Y26	Z26	X27	Y27	Z27	X28	Y28	Z28	X29	Y29	Z29	X30	Y30	Z30	X31	Y31	Z31	X32	Y32	Z32	X33	Y33	Z33	X34	Y34	Z34	X35	Y35	Z35	X36	Y36	Z36	X37	Y37	Z37	X38	Y38	Z38	X39	Y39	Z39	X40	Y40	Z40	X41	Y41	Z41	X42	Y42	Z42	X43	Y43	Z43	X44	Y44	Z44	X45	Y45	Z45	X46	Y46	Z46	X47	Y47	Z47	X48	Y48	Z48	X49	Y49	Z49	X50	Y50	Z50	X51	Y51	Z51	X52	Y52	Z52	X53	Y53	Z53	

1	0	913.5208129882812	1021.801879882812	-193.2860107421875	893.17431640625	1015.826110839844	-370.5180053710938	904.226806640625	1073.794555664062	-286.9142150878906	1146.50634765625	1274.884399414062	-287.9276428222656	881.0908813476562	1207.9755859375	-288.569580078125	934.9220581054688	1475.763793945312	-298.4756164550781	1115.070434570312	1388.348022460938	-292.8162536621094	873.65576171875	1338.12255859375	-219.9859771728516	914.2463989257812	1434.57275390625	-398.1806640625	1018.453979492188	1437.245361328125	-470.2955932617188	1005.157165527344	1306.219848632812	-542.2433471679688	1034.647827148438	1089.882934570312	-548.230224609375	969.4129638671875	1078.20703125	-464.9378356933594	1136.578247070312	862.072998046875	-465.2794494628906	1081.061767578125	842.5287475585938	-525.6742553710938	1061.243041992188	982.032470703125	-547.4424438476562	1118.793701171875	763.7769775390625	-513.3109130859375	1163.661254882812	780.568603515625	-460.3677062988281	999.2072143554688	1443.5322265625	-120.2484664916992	989.1927490234375	1375.555908203125	-54.87778854370117	970.381591796875	1107.224243164062	-29.39858245849609	986.7442626953125	1086.609741210938	-125.1400833129883	1114.768188476562	857.108642578125	-68.04812622070312	1046.040161132812	844.7421875	-16.22454833984375	986.5152587890625	1029.008056640625	-22.32541084289551	1108.141235351562	665.7535400390625	-84.45055389404297	1129.964965820312	750.4727172851562	-70.0474853515625	1075.914184570312	752.7716674804688	-15.7830867767334	976.3368530273438	1652.072631835938	-372.0626220703125	1118.796997070312	1691.2607421875	-213.1177520751953	1145.0810546875	1700.965454101562	-336.4538879394531	956.6920166015625	1635.52001953125	-237.0556945800781	948.4256591796875	972.88671875	-477.83837890625	973.3946533203125	952.69091796875	-116.4714813232422	1098.255981445312	970.0379028320312	-138.5965423583984	1112.806518554688	961.9217529296875	-406.3434143066406	1072.7080078125	490.3143920898438	-413.4193420410156	1040.630615234375	629.0489501953125	-447.9229431152344	937.9579467773438	40.03747940063477	-432.1848754882812	997.786865234375	251.4154663085938	-436.5327758789062	1143.505126953125	31.77196502685547	-441.4187927246094	1098.59423828125	31.20153427124023	-383.8256530761719	1037.431274414062	30.02507209777832	-477.998046875	891.5199584960938	36.31866836547852	-353.6490783691406	1040.783447265625	506.6648864746094	-137.2006225585938	1053.256958007812	777.3217163085938	-104.5001449584961	946.4749755859375	35.37056732177734	-140.0160980224609	1016.702514648438	386.9043579101562	-132.3049011230469	1163.43603515625	28.70536231994629	-175.4589080810547	1101.765502929688	34.09696578979492	-216.4807434082031	1071.434326171875	36.86006546020508	-124.1548690795898	898.8056640625	36.64968490600586	-196.0865478515625	1156.2607421875	680.107177734375	-427.4595947265625	
2	0.01	913.444091796875	1021.785705566406	-193.3784637451172	893.1215209960938	1015.807373046875	-370.6051940917969	904.1397094726562	1073.799072265625	-287.0255737304688	1146.486572265625	1274.88427734375	-287.9797058105469	881.039794921875	1208.007080078125	-288.7112731933594	934.9185791015625	1475.774047851562	-298.5302734375	1115.05615234375	1388.340576171875	-292.8769226074219	873.6006469726562	1338.135986328125	-220.0686645507812	914.2621459960938	1434.595825195312	-398.2613830566406	1018.474182128906	1437.265991210938	-470.3390502929688	1005.187927246094	1306.27001953125	-542.3576049804688	1034.672607421875	1089.913452148438	-548.3759765625	969.4774169921875	1078.240234375	-465.1134948730469	1136.592407226562	862.1420288085938	-465.2157897949219	1081.155029296875	842.5657348632812	-525.6828002929688	1061.2861328125	982.0606079101562	-547.510009765625	1118.936889648438	763.88232421875	-513.2621459960938	1163.71337890625	780.6892700195312	-460.2586059570312	999.1712036132812	1443.503540039062	-120.3091125488281	989.1570434570312	1375.51416015625	-54.94412994384766	970.3919677734375	1107.187377929688	-29.47824478149414	986.7528686523438	1086.53857421875	-125.2250823974609	1114.71875	857.0353393554688	-68.00078582763672	1045.995849609375	844.7077026367188	-16.17267799377441	986.511474609375	1028.992553710938	-22.39908790588379	1108.078735351562	665.6688842773438	-84.2493896484375	1129.937866210938	750.4058837890625	-69.90299987792969	1075.798095703125	752.7159423828125	-15.69692039489746	976.3358154296875	1652.101318359375	-372.1089782714844	1118.804443359375	1691.239379882812	-213.1628723144531	1145.090454101562	1700.939086914062	-336.4813537597656	956.6588745117188	1635.545654296875	-237.1039123535156	949.0128173828125	972.65478515625	-477.638916015625	973.3002319335938	952.697509765625	-116.5420227050781	1098.175048828125	970.0640258789062	-138.6211700439453	1112.806396484375	961.9161987304688	-406.3424682617188	1072.728759765625	490.2959289550781	-413.4073486328125	1040.663208007812	629.0421752929688	-447.9360961914062	937.9573974609375	40.03723526000977	-432.1844787597656	997.8063354492188	251.397705078125	-436.5358581542969	1143.510986328125	31.77122116088867	-441.4178771972656	1098.593627929688	31.20678901672363	-383.8241577148438	1037.430786132812	30.02564239501953	-477.9991455078125	891.5197143554688	36.32345581054688	-353.6535949707031	1040.8076171875	506.6752624511719	-137.2335052490234	1053.252319335938	777.3179321289062	-104.5381927490234	946.4779052734375	35.37599563598633	-140.0222320556641	1016.710754394531	386.9039001464844	-132.3179321289062	1163.439453125	28.70567512512207	-175.4584503173828	1101.764770507812	34.10075759887695	-216.4865875244141	1071.435424804688	36.86107635498047	-124.1581192016602	898.8102416992188	36.64945220947266	-196.0912322998047	1156.394653320312	680.222412109375	-427.3100280761719	
3	0.02	913.3488159179688	1021.765502929688	-193.5042114257812	893.0608520507812	1015.786071777344	-370.7207641601562	904.0166015625	1073.804077148438	-287.1739196777344	1146.46240234375	1274.883178710938	-288.0444030761719	880.9771118164062	1208.044311523438	-288.8978271484375	934.9143676757812	1475.7861328125	-298.6018981933594	1115.039306640625	1388.33154296875	-292.9512634277344	873.533935546875	1338.15087890625	-220.1775054931641	914.286865234375	1434.626220703125	-398.3694152832031	1018.5068359375	1437.293579101562	-470.3939208984375	1005.235717773438	1306.336181640625	-542.5034790039062	1034.710815429688	1089.956665039062	-548.5665893554688	969.5722045898438	1078.28466796875	-465.3471374511719	1136.608154296875	862.2181396484375	-465.1591491699219	1081.272583007812	842.614990234375	-525.7210693359375	1061.345092773438	982.0980834960938	-547.6102294921875	1119.106811523438	764.0094604492188	-513.2322387695312	1163.775390625	780.8339233398438	-460.1541442871094	999.1207275390625	1443.46533203125	-120.3886337280273	989.102294921875	1375.459838867188	-55.03251647949219	970.4017333984375	1107.136962890625	-29.58233451843262	986.7603149414062	1086.44677734375	-125.3386459350586	1114.658813476562	856.944091796875	-67.94669342041016	1045.94091796875	844.6610107421875	-16.11556243896484	986.5006103515625	1028.968505859375	-22.49883842468262	1108.008422851562	665.564208984375	-84.01514434814453	1129.912719726562	750.3230590820312	-69.73003387451172	1075.663330078125	752.6434936523438	-15.59618377685547	976.3336181640625	1652.1357421875	-372.1671142578125	1118.814331054688	1691.213500976562	-213.2217407226562	1145.10205078125	1700.902221679688	-336.5164184570312	956.6189575195312	1635.580688476562	-237.1667938232422	949.7547607421875	972.3653564453125	-477.3909912109375	973.1793823242188	952.7049560546875	-116.6384963989258	1098.06396484375	970.0906372070312	-138.6576538085938	1112.808959960938	961.9119262695312	-406.3445129394531	1072.758178710938	490.2715148925781	-413.3937683105469	1040.705688476562	629.0322265625	-447.9563903808594	937.9566040039062	40.03689956665039	-432.1839599609375	997.8342895507812	251.3742218017578	-436.5420532226562	1143.517211914062	31.77040100097656	-441.4164123535156	1098.593017578125	31.21227073669434	-383.8222961425781	1037.4306640625	30.02627944946289	-478.00048828125	891.518798828125	36.3289794921875	-353.6590576171875	1040.833618164062	506.6877136230469	-137.2744598388672	1053.245361328125	777.3150024414062	-104.5858993530273	946.48291015625	35.38242721557617	-140.0294189453125	1016.718505859375	386.9032287597656	-132.3361968994141	1163.443481445312	28.70648574829102	-175.4574279785156	1101.764038085938	34.10487747192383	-216.4926605224609	1071.436767578125	36.86228561401367	-124.1619338989258	898.8157958984375	36.64900207519531	-196.0979309082031	1156.546264648438	680.3541259765625	-427.1724853515625	
4	0.03	913.2412109375	1021.742248535156	-193.6619415283203	892.9990234375	1015.764770507812	-370.8620300292969	903.8564453125	1073.808837890625	-287.3563537597656	1146.435302734375	1274.880737304688	-288.1179809570312	880.9047241210938	1208.08447265625	-289.1243896484375	934.9098510742188	1475.798706054688	-298.6886901855469	1115.021484375	1388.321411132812	-293.0343627929688	873.4603271484375	1338.166137695312	-220.3102264404297	914.3221435546875	1434.663208007812	-398.5030517578125	1018.554443359375	1437.327392578125	-470.4575500488281	1005.303405761719	1306.416625976562	-542.6746826171875	1034.765258789062	1090.013427734375	-548.7965698242188	969.6987915039062	1078.339965820312	-465.6339416503906	1136.623291015625	862.2913208007812	-465.1268310546875	1081.408447265625	842.6751098632812	-525.8035888671875	1061.419799804688	982.1444091796875	-547.7474365234375	1119.288696289062	764.148681640625	-513.2418212890625	1163.841552734375	780.9910278320312	-460.0796203613281	999.0557250976562	1443.418579101562	-120.4845199584961	989.0258178710938	1375.394775390625	-55.14130020141602	970.4078979492188	1107.073486328125	-29.70806694030762	986.7640380859375	1086.337646484375	-125.4787368774414	1114.592407226562	856.8401489257812	-67.89212036132812	1045.878540039062	844.6024780273438	-16.06140518188477	986.4794921875	1028.93408203125	-22.62382698059082	1107.939819335938	665.4461059570312	-83.77033233642578	1129.8955078125	750.2293090820312	-69.54332733154297	1075.5234375	752.556640625	-15.4910192489624	976.329833984375	1652.173095703125	-372.2338562011719	1118.826538085938	1691.1845703125	-213.2925109863281	1145.114990234375	1700.854614257812	-336.5577087402344	956.5751342773438	1635.62451171875	-237.2421569824219	950.6237182617188	972.0317993164062	-477.1066589355469	973.0374755859375	952.71240234375	-116.7602386474609	1097.923706054688	970.1132202148438	-138.7075653076172	1112.815551757812	961.910888671875	-406.3517150878906	1072.796630859375	490.24169921875	-413.3803100585938	1040.756958007812	629.018798828125	-447.9848327636719	937.9556274414062	40.03647994995117	-432.1834106445312	997.871337890625	251.3454132080078	-436.5523681640625	1143.523193359375	31.76947021484375	-441.4143371582031	1098.592529296875	31.21709060668945	-383.8202209472656	1037.43115234375	30.02685356140137	-478.0020446777344	891.5172119140625	36.33469390869141	-353.6650085449219	1040.857421875	506.7012634277344	-137.3212890625	1053.235595703125	777.3138427734375	-104.6408843994141	946.490234375	35.38935089111328	-140.0370330810547	1016.7236328125	386.90234375	-132.3600311279297	1163.447875976562	28.70792579650879	-175.4556121826172	1101.763793945312	34.10882186889648	-216.4980316162109	1071.438232421875	36.86359024047852	-124.1659622192383	898.8219604492188	36.64830017089844	-196.1067047119141	1156.698486328125	680.4884033203125	-427.0821838378906	
